<?xml version="1.0" encoding="UTF-8" standalone="no"?>
<!DOCTYPE svg PUBLIC "-//W3C//DTD SVG 1.1//EN" "http://www.w3.org/Graphics/SVG/1.1/DTD/svg11.dtd">
<svg width="100%" height="100%" viewBox="0 0 300 150" version="1.1" xmlns="http://www.w3.org/2000/svg" xmlns:xlink="http://www.w3.org/1999/xlink" xml:space="preserve" xmlns:serif="http://www.serif.com/" style="fill-rule:evenodd;clip-rule:evenodd;stroke-linejoin:round;stroke-miterlimit:2;">
    <g id="Frame" transform="matrix(1,0,0,1,-25.0009,0)">
        <g transform="matrix(0.882353,0,0,1.03448,22.3529,-0.534199)">
            <ellipse cx="173" cy="145.5" rx="17" ry="14.5" style="fill:rgb(255,207,100);"/>
        </g>
        <g transform="matrix(0.869565,0,0,1.14943,-653.26,-634.483)">
            <path d="M796.162,627.348L952.5,682.5L780,682.5C780,663.444 785.517,644.619 796.162,627.348Z" style="fill:rgb(255,207,100);"/>
            <path d="M796.162,627.348L952.5,682.5L780,682.5C780,663.444 785.517,644.619 796.162,627.348ZM799.033,633.161C791.024,647.417 786.555,662.669 785.849,678.15L926.563,678.15L799.033,633.161Z" style="fill:rgb(255,207,100);"/>
        </g>
        <g transform="matrix(-0.869565,0,0,1.14943,1003.26,-634.483)">
            <path d="M796.162,627.348L952.5,682.5L780,682.5C780,663.444 785.517,644.619 796.162,627.348Z" style="fill:rgb(255,207,100);"/>
            <path d="M796.162,627.348C785.517,644.619 780,663.444 780,682.5L952.5,682.5L796.162,627.348ZM799.033,633.161L926.563,678.15L785.849,678.15C786.555,662.669 791.024,647.417 799.033,633.161Z" style="fill:rgb(255,207,100);"/>
        </g>
        <g transform="matrix(0.618557,0,0,1.36986,55.3102,15.0685)">
            <path d="M436,98.5L193.5,98.5L-49,98.5C-49,38.025 59.571,-11 193.5,-11C327.429,-11 436,38.025 436,98.5ZM427.78,94.85C423.52,38.081 320.259,-7.35 193.5,-7.35C66.741,-7.35 -36.52,38.081 -40.78,94.85L193.5,94.85L427.78,94.85Z" style="fill:rgb(255,207,100);"/>
        </g>
    </g>
</svg>
