<?xml version="1.0" encoding="UTF-8" standalone="no"?>
<!DOCTYPE svg PUBLIC "-//W3C//DTD SVG 1.1//EN" "http://www.w3.org/Graphics/SVG/1.1/DTD/svg11.dtd">
<svg width="100%" height="100%" viewBox="0 0 200 200" version="1.1" xmlns="http://www.w3.org/2000/svg" xmlns:xlink="http://www.w3.org/1999/xlink" xml:space="preserve" xmlns:serif="http://www.serif.com/" style="fill-rule:evenodd;clip-rule:evenodd;stroke-linejoin:round;stroke-miterlimit:2;">
    <g id="Beans">
        <g transform="matrix(0.691536,-1.8389e-16,5.75819e-17,1.32507,48.1737,12.5243)">
            <path d="M151.774,4.602L150.541,7.903C150.541,7.903 137.639,9.511 137.931,15.602C137.995,16.943 129.177,19.896 130,13C130.823,6.104 151.774,4.602 151.774,4.602Z" style="fill:rgb(166,155,0);"/>
            <path d="M156.032,5.035L154.799,8.336C154.474,9.208 153.203,9.899 151.549,10.106C151.549,10.106 142.058,11.165 142.268,15.546L142.074,16.385L141.32,17.302C140.716,17.826 139.737,18.379 138.53,18.807C137.301,19.243 135.853,19.545 134.421,19.629L132.662,19.627L130.792,19.372C128.318,18.836 125.152,17.205 125.67,12.859C126.095,9.298 130.461,6.772 135.807,5.117C142.753,2.968 151.183,2.359 151.183,2.359C152.57,2.26 153.964,2.516 154.926,3.047C155.888,3.578 156.299,4.318 156.032,5.035ZM151.774,4.602C151.774,4.602 130.823,6.104 130,13C129.177,19.896 137.995,16.943 137.931,15.602C137.639,9.511 150.541,7.903 150.541,7.903L151.774,4.602Z"/>
        </g>
        <g transform="matrix(1.08121,0.198253,-0.225395,0.997765,19.2692,-42.583)">
            <path d="M122,49C125.502,49.17 125.84,54.055 128.03,63.052C132.552,81.622 134.57,110.725 129,127C123.131,144.146 89.798,161.144 70.963,169.559C63.273,172.995 61.113,174.412 60,174C58.887,173.588 60.526,171.9 64.286,167.087C74.117,154.503 85.298,143.668 100,118C109.522,101.376 111.194,82.171 115.668,65.099C118.546,54.118 120.624,48.933 122,49Z" style="fill:rgb(47,210,97);"/>
            <path d="M122.012,46.068C124.495,46.188 126.185,47.487 127.443,50.213C128.561,52.638 129.289,56.744 130.671,62.419C135.317,81.496 137.291,111.392 131.568,128.111C129.078,135.386 122.038,142.749 113.074,149.402C100.246,158.921 83.534,167.167 72.098,172.277C66.582,174.741 63.837,176.179 62.298,176.683C61.619,176.905 61.07,176.994 60.618,177.004L59.205,176.771L58.452,176.385L57.893,175.909L57.462,175.35L57.141,174.684L56.926,173.389L57.17,172.084C57.546,171.035 59.229,168.904 62.165,165.146C71.931,152.644 83.052,141.89 97.658,116.388C107.047,99.996 108.625,81.031 113.037,64.198C115.152,56.126 116.903,51.057 118.231,48.754C118.785,47.793 119.341,47.17 119.815,46.801L120.956,46.2L122.012,46.068ZM122,49C120.624,48.933 118.546,54.118 115.668,65.099C111.194,82.171 109.522,101.376 100,118C85.298,143.668 74.117,154.503 64.286,167.087C60.526,171.9 58.887,173.588 60,174C61.113,174.412 63.273,172.995 70.963,169.559C89.798,161.144 123.131,144.146 129,127C134.57,110.725 132.552,81.622 128.03,63.052C125.84,54.055 125.502,49.17 122,49Z"/>
        </g>
        <g transform="matrix(1.33918,-1.28513e-17,1.42643e-17,1.20652,-21.9196,-28.6414)">
            <path d="M122,49C125.505,49.081 125.84,54.055 128.03,63.052C132.552,81.622 134.57,110.725 129,127C123.131,144.146 89.798,161.144 70.963,169.559C63.273,172.995 61.113,174.412 60,174C58.887,173.588 60.526,171.9 64.286,167.087C74.117,154.503 90.671,144.436 105.373,118.768C114.895,102.143 120.055,82.723 120.978,65.099C121.553,54.118 119.089,48.933 122,49Z" style="fill:rgb(0,166,52);"/>
            <path d="M122.046,46.514C124.32,46.566 125.852,47.759 127.001,50.26C128.11,52.671 128.823,56.776 130.193,62.403C134.823,81.417 136.798,111.219 131.094,127.883C128.62,135.112 121.612,142.422 112.705,149.032C99.9,158.534 83.215,166.766 71.799,171.866C66.305,174.321 63.572,175.755 62.039,176.257C60.785,176.668 59.942,176.6 59.291,176.359L58.674,176.043L58.223,175.659L57.871,175.202L57.603,174.646L57.417,173.514L57.643,172.316C58.015,171.278 59.689,169.175 62.594,165.458C72.37,152.943 88.861,142.96 103.482,117.434C112.793,101.178 117.839,82.188 118.742,64.955C119.151,57.143 118.076,52.216 118.391,49.987C118.428,49.726 118.477,49.487 118.537,49.267L118.816,48.501L119.507,47.497L120.515,46.798L121.307,46.564L122.046,46.514ZM122,49C119.089,48.933 121.553,54.118 120.978,65.099C120.055,82.723 114.895,102.143 105.373,118.768C90.671,144.436 74.117,154.503 64.286,167.087C60.526,171.9 58.887,173.588 60,174C61.113,174.412 63.273,172.995 70.963,169.559C89.798,161.144 123.131,144.146 129,127C134.57,110.725 132.552,81.622 128.03,63.052C125.84,54.055 125.505,49.081 122,49Z"/>
        </g>
    </g>
</svg>
