<?xml version="1.0" encoding="UTF-8" standalone="no"?>
<!DOCTYPE svg PUBLIC "-//W3C//DTD SVG 1.1//EN" "http://www.w3.org/Graphics/SVG/1.1/DTD/svg11.dtd">
<svg width="100%" height="100%" viewBox="0 0 200 200" version="1.1" xmlns="http://www.w3.org/2000/svg" xmlns:xlink="http://www.w3.org/1999/xlink" xml:space="preserve" xmlns:serif="http://www.serif.com/" style="fill-rule:evenodd;clip-rule:evenodd;stroke-linecap:round;stroke-linejoin:round;stroke-miterlimit:1.5;">
    <g id="Cabbage">
        <g transform="matrix(1,0,0,1,-0.984903,5.81862)">
            <path d="M24,69C24,69 22.516,43.494 41.193,39.181C48.739,37.439 53.54,19.866 60.63,17.721C77.415,12.642 80.665,23.473 93.985,22.738C103.274,22.226 106.11,13.925 121.985,15.012C130.044,15.564 136.957,23.441 145.442,23.98C157.054,24.718 160.588,37.965 162,41C163.973,45.242 170.422,59.173 166.998,60" style="fill:rgb(0,144,10);stroke:black;stroke-width:2px;"/>
        </g>
        <g transform="matrix(1,0,0,1.19645,3.94384,6.29549)">
            <path d="M25,57.424C25,57.424 58.915,33.705 81.396,32.162C100.421,30.856 116.364,34.956 128,38.2C134.171,39.921 151.666,35.998 158.514,38.2C165.205,40.352 162.314,46.04 163,48.23C164.388,52.661 136.457,81 136.457,81L54.217,85L25,57.424Z" style="fill:rgb(177,255,111);"/>
            <path d="M25,57.424C25,57.424 58.915,33.705 81.396,32.162C100.421,30.856 116.364,34.956 128,38.2C134.171,39.921 151.666,35.998 158.514,38.2C165.205,40.352 162.314,46.04 163,48.23C164.388,52.661 136.457,81 136.457,81L54.217,85L25,57.424ZM161.049,48.599C160.768,47.616 161.021,46.041 161.052,44.348C161.083,42.641 160.751,40.711 157.796,39.76C154.573,38.724 148.845,39.222 143.198,39.683C136.866,40.201 130.623,40.693 127.367,39.786C115.929,36.597 100.261,32.544 81.56,33.828C72.819,34.428 62.32,38.52 52.844,43.163C41.498,48.721 31.62,55.116 27.88,57.62L55.071,83.284C55.071,83.284 135.466,79.374 135.466,79.374C138.088,76.688 149.439,64.964 156.207,56.345C158.118,53.911 159.659,51.738 160.493,50.109C160.815,49.482 161.028,48.68 161.049,48.599Z"/>
        </g>
        <path d="M140.348,45C140.348,45 89.536,63.432 79,93C66.335,128.545 96,175.316 96,175.316C96,175.316 122.186,142.466 130,104C137.187,68.62 140.348,45 140.348,45Z" style="fill:rgb(9,122,0);"/>
        <path d="M140.348,45C140.348,45 137.187,68.62 130,104C122.186,142.466 96,175.316 96,175.316C96,175.316 66.335,128.545 79,93C89.536,63.432 140.348,45 140.348,45ZM137.887,48.109C131.996,50.508 118.759,56.347 106.283,64.975C95.359,72.531 84.968,82.21 80.884,93.671C75.955,107.504 77.674,123.084 81.441,136.801C85.846,152.84 93.091,166.364 96.198,171.748C102.156,163.683 121.538,135.612 128.04,103.602C133.614,76.161 136.762,55.811 137.887,48.109Z"/>
        <path d="M46.217,52C46.217,52 35.574,76.841 54.217,104C72.86,131.159 96,175.316 96,175.316C96,175.316 105.762,113.511 100,93C92.138,65.016 46.217,52 46.217,52Z" style="fill:rgb(0,155,20);"/>
        <path d="M46.217,52C46.217,52 92.138,65.016 100,93C105.762,113.511 96,175.316 96,175.316C96,175.316 72.86,131.159 54.217,104C35.574,76.841 46.217,52 46.217,52ZM47.453,54.472C45.562,60.352 40.725,80.811 55.866,102.868C70.606,124.341 88.151,156.409 94.916,169.02C97.186,153.129 102.688,109.963 98.075,93.541C95.057,82.799 86.122,74.416 76.575,68.151C64.824,60.44 52.059,55.951 47.453,54.472Z"/>
        <path d="M169,45C169,45 198.659,95.568 177,133C151.057,177.837 88,175.316 88,175.316C88,175.316 92.332,126.851 115,91C137.668,55.149 169,45 169,45Z" style="fill:rgb(34,133,0);"/>
        <path d="M169,45C169,45 198.659,95.568 177,133C151.057,177.837 88,175.316 88,175.316C88,175.316 92.332,126.851 115,91C137.668,55.149 169,45 169,45ZM168.084,47.467C161.613,50.003 135.971,61.575 116.69,92.069C97.082,123.081 91.353,163.637 90.222,173.341C96.344,173.314 114.703,172.577 133.759,165.393C149.212,159.568 165.147,149.492 175.269,131.998C183.685,117.453 184.071,100.858 181.569,86.19C178.409,67.663 170.616,52.159 168.084,47.467Z"/>
        <path d="M19,64C19,64 51.184,80.207 65,94C78.816,107.793 96,175 96,175C96,175 64.878,180.458 31,146C-1.951,112.484 19,64 19,64Z" style="fill:rgb(42,177,0);"/>
        <path d="M19,64C19,64 51.184,80.207 65,94C78.816,107.793 96,175 96,175C96,175 64.878,180.458 31,146C-1.951,112.484 19,64 19,64ZM20.054,66.79C16.621,76.096 4.276,115.965 32.426,144.598C60.179,172.826 85.974,173.684 93.473,173.243C91.405,165.436 84.154,138.888 75.932,118.321C71.861,108.14 67.608,99.429 63.587,95.415C51.964,83.812 27.179,70.499 20.054,66.79Z"/>
        <g>
            <path d="M100,169C100,169 127.258,161.467 150,125.658C172.352,90.464 166.998,53.819 166.998,53.819" style="fill:none;stroke:black;stroke-width:3px;"/>
            <path d="M122,96C122,96 136.826,119.638 150,124C163.174,128.362 176,122.658 176,122.658" style="fill:none;stroke:black;stroke-width:3px;"/>
            <g transform="matrix(0.666667,0,0,0.666667,28.6667,69.5389)">
                <path d="M122,96C122,96 136.826,119.638 150,124C163.174,128.362 176,122.658 176,122.658" style="fill:none;stroke:black;stroke-width:4.5px;"/>
            </g>
        </g>
        <g transform="matrix(-0.687447,0,0,0.687447,149.085,49.0545)">
            <path d="M100,169C100,169 127.258,161.467 150,125.658C172.352,90.464 178.635,53.819 178.635,53.819" style="fill:none;stroke:black;stroke-width:4.36px;"/>
            <path d="M122,96C122,96 136.826,119.638 150,124C163.174,128.362 176,122.658 176,122.658" style="fill:none;stroke:black;stroke-width:4.36px;"/>
            <g transform="matrix(0.666667,0,0,0.666667,28.6667,69.5389)">
                <path d="M122,96C122,96 136.826,119.638 150,124C163.174,128.362 176,122.658 176,122.658" style="fill:none;stroke:black;stroke-width:6.55px;"/>
            </g>
        </g>
    </g>
</svg>
