<?xml version="1.0" encoding="UTF-8" standalone="no"?>
<!DOCTYPE svg PUBLIC "-//W3C//DTD SVG 1.1//EN" "http://www.w3.org/Graphics/SVG/1.1/DTD/svg11.dtd">
<svg width="100%" height="100%" viewBox="0 0 200 200" version="1.1" xmlns="http://www.w3.org/2000/svg" xmlns:xlink="http://www.w3.org/1999/xlink" xml:space="preserve" xmlns:serif="http://www.serif.com/" style="fill-rule:evenodd;clip-rule:evenodd;stroke-linejoin:round;stroke-miterlimit:2;">
    <g id="Fertilizer">
        <g transform="matrix(1.09328,0,0,1.09328,-8.99659,-25.5098)">
            <path d="M51,80L36.999,168.475C36.999,168.475 28.335,177.162 32,179C41.737,183.884 142.666,185.919 167,180C171.733,178.849 162.005,167.485 162.005,167.485L149,80C117.297,90.439 84.597,90.08 51,80Z" style="fill:rgb(186,216,110);"/>
            <path d="M51.789,77.372C84.821,87.283 116.972,87.657 148.142,77.394C148.91,77.141 149.752,77.24 150.44,77.664C151.129,78.089 151.595,78.796 151.714,79.597C151.714,79.597 164.608,166.334 164.607,166.333C165.951,168.003 169.521,172.628 170.613,175.927C171.205,177.716 171.126,179.284 170.586,180.388L170.059,181.205L169.341,181.887L168.511,182.373L167.649,182.666C150.486,186.841 95.511,187.143 60.704,185.228C45.335,184.383 33.802,182.974 30.77,181.453L30.044,181.002L29.397,180.398L28.889,179.668L28.556,178.88C28.22,177.797 28.308,176.398 28.92,174.886C30.034,172.137 33.09,168.652 34.421,167.21L48.29,79.571C48.413,78.789 48.869,78.098 49.54,77.677C50.21,77.255 51.03,77.144 51.789,77.372ZM51,80L36.999,168.475C36.999,168.475 28.335,177.162 32,179C41.737,183.884 142.666,185.919 167,180C171.733,178.849 162.005,167.485 162.005,167.485L149,80C117.297,90.439 84.597,90.08 51,80Z"/>
        </g>
        <g transform="matrix(1.09328,0,0,1.09328,-8.99659,-11.2972)">
            <path d="M50.08,65.628C50.08,65.628 38.651,62.472 43,59C45.777,56.783 48.452,53.777 48.452,53.777C84.431,61.73 115.286,62.838 151,54C151,54 153.901,57.272 157,59C161.818,61.686 149.742,65.137 149.742,65.137C116.889,76.456 83.657,76.271 50.08,65.628Z" style="fill:rgb(128,160,46);"/>
            <path d="M49.305,68.26L49.291,68.256C48.856,68.132 46.111,67.326 43.789,66.127C42.477,65.449 41.304,64.629 40.553,63.778C40.325,63.519 40.129,63.255 39.964,62.988L39.494,61.992L39.308,61.202L39.279,60.343L39.494,59.273L39.951,58.318C40.25,57.84 40.678,57.342 41.288,56.855C43.894,54.775 46.402,51.953 46.402,51.953C47.063,51.211 48.074,50.884 49.044,51.098C84.584,58.954 115.063,60.067 150.341,51.336C151.331,51.091 152.376,51.416 153.053,52.18C153.053,52.18 155.602,55.079 158.336,56.603C158.712,56.813 159.026,57.029 159.288,57.243L160.137,58.136L160.584,58.93L160.842,59.859L160.855,60.814L160.655,61.671L160.252,62.505L159.516,63.431C157.483,65.506 151.53,67.448 150.633,67.732C117.23,79.24 83.443,79.071 49.305,68.26ZM50.08,65.628C83.657,76.271 116.889,76.456 149.742,65.137C149.742,65.137 161.818,61.686 157,59C153.901,57.272 151,54 151,54C115.286,62.838 84.431,61.73 48.452,53.777C48.452,53.777 45.777,56.783 43,59C38.651,62.472 50.08,65.628 50.08,65.628Z"/>
        </g>
        <g transform="matrix(1.09328,0,0,1.09328,-8.99659,-25.5098)">
            <path d="M56,66.777C56,66.777 58.456,52.895 73,53C87.544,53.105 86.372,46.319 95,46C103.628,45.681 109.833,48.333 117,51C122.32,52.98 128.486,50.652 134,52C140.667,53.63 148,66.777 148,66.777C114.944,74.302 84.317,74.18 56,66.777Z" style="fill:rgb(125,92,57);"/>
            <path d="M53.298,66.299C53.298,66.299 56.122,50.134 73.02,50.256C80.809,50.312 83.552,48.169 86.16,46.373C88.494,44.765 90.764,43.411 94.899,43.258C103.936,42.923 110.45,45.635 117.957,48.428C120.264,49.286 122.759,49.141 125.27,48.997C128.44,48.816 131.634,48.597 134.652,49.334C137.064,49.924 139.604,51.679 141.9,53.966C146.594,58.64 150.396,65.441 150.396,65.441C150.817,66.196 150.858,67.105 150.507,67.894C150.155,68.684 149.452,69.261 148.609,69.453C115.085,77.084 84.024,76.94 55.306,69.432C53.923,69.071 53.049,67.707 53.298,66.299ZM56,66.777C84.317,74.18 114.944,74.302 148,66.777C148,66.777 140.667,53.63 134,52C128.486,50.652 122.32,52.98 117,51C109.833,48.333 103.628,45.681 95,46C86.372,46.319 87.544,53.105 73,53C58.456,52.895 56,66.777 56,66.777Z"/>
        </g>
    </g>
</svg>
