<?xml version="1.0" encoding="UTF-8" standalone="no"?>
<!DOCTYPE svg PUBLIC "-//W3C//DTD SVG 1.1//EN" "http://www.w3.org/Graphics/SVG/1.1/DTD/svg11.dtd">
<svg width="100%" height="100%" viewBox="0 0 200 200" version="1.1" xmlns="http://www.w3.org/2000/svg" xmlns:xlink="http://www.w3.org/1999/xlink" xml:space="preserve" xmlns:serif="http://www.serif.com/" style="fill-rule:evenodd;clip-rule:evenodd;stroke-linejoin:round;stroke-miterlimit:2;">
    <g transform="matrix(1,0,0,1,4.5,-23.3892)">
        <g id="Organic-Waste" serif:id="Organic Waste">
            <path d="M23,50C23,50 93.181,40.369 133,71C142.269,78.131 157.509,93.366 162.777,109.107C171.482,135.119 166.803,162.513 165,157C156.333,130.5 96,100 96,100C96,100 151.012,140.934 157.134,168.513C159.261,178.095 166.868,191.891 168,196L158.049,198.214C158.049,198.214 155.519,174.583 150.542,171.926C119.932,155.585 86.599,154.823 61,132C48.801,121.124 45.289,91.806 38.2,71.494C33.715,58.645 23,50 23,50Z" style="fill:rgb(58,163,61);"/>
            <path d="M22.592,47.028C22.592,47.028 94.189,37.359 134.829,68.622C144.434,76.011 160.164,91.844 165.622,108.155C172.875,129.829 171.032,152.436 169.113,157.667C168.904,158.237 168.678,158.682 168.469,159.006L167.498,160.059L166.761,160.473L166.102,160.664L164.845,160.641L164.09,160.377L163.281,159.816L162.609,158.974L162.149,157.933C158.829,147.782 147.45,137.146 135.162,127.884C132.025,125.519 128.821,123.249 125.661,121.109C131.757,126.818 138.024,133.149 143.515,139.608C151.707,149.244 158.142,159.208 160.063,167.862C162.179,177.396 169.766,191.116 170.892,195.203C171.11,195.995 170.994,196.842 170.571,197.546C170.147,198.25 169.453,198.75 168.652,198.928L158.701,201.142C157.867,201.328 156.994,201.149 156.3,200.651C155.606,200.153 155.157,199.383 155.067,198.533C155.067,198.533 153.873,187.295 151.494,179.669C151.032,178.186 150.53,176.849 149.969,175.8C149.675,175.249 149.474,174.757 149.129,174.572C133.981,166.486 118.151,162.276 102.949,157.242C87.204,152.028 72.125,145.937 59.004,134.239C53.802,129.602 49.981,121.874 46.906,112.818C42.581,100.083 39.619,84.662 35.367,72.482C31.163,60.437 21.116,52.335 21.116,52.335C20.185,51.583 19.789,50.35 20.11,49.196C20.43,48.043 21.406,47.191 22.592,47.028ZM23,50C23,50 33.715,58.645 38.2,71.494C45.289,91.806 48.801,121.124 61,132C86.599,154.823 119.932,155.585 150.542,171.926C155.519,174.583 158.049,198.214 158.049,198.214L168,196C166.868,191.891 159.261,178.095 157.134,168.513C151.012,140.934 96,100 96,100C96,100 156.333,130.5 165,157C166.803,162.513 171.482,135.119 162.777,109.107C157.509,93.366 142.269,78.131 133,71C93.181,40.369 23,50 23,50Z"/>
        </g>
    </g>
</svg>
