<?xml version="1.0" encoding="UTF-8" standalone="no"?>
<!DOCTYPE svg PUBLIC "-//W3C//DTD SVG 1.1//EN" "http://www.w3.org/Graphics/SVG/1.1/DTD/svg11.dtd">
<svg width="100%" height="100%" viewBox="0 0 200 200" version="1.1" xmlns="http://www.w3.org/2000/svg" xmlns:xlink="http://www.w3.org/1999/xlink" xml:space="preserve" xmlns:serif="http://www.serif.com/" style="fill-rule:evenodd;clip-rule:evenodd;stroke-linecap:round;stroke-linejoin:round;stroke-miterlimit:1.5;">
    <g transform="matrix(2.12837,0,0,2.12837,-106.036,-120.708)">
        <g transform="matrix(-0.71571,1.2232,1.73556,0.401893,69.5894,63.5423)">
            <path d="M30.786,14.668C34.119,14.668 40,26.617 40,36C40,45.383 33.333,51 30,51C26.667,51 20,45.383 20,36C20,26.617 27.453,14.668 30.786,14.668Z" style="fill:rgb(33,50,0);"/>
            <path d="M30.786,14.668C27.453,14.668 20,26.617 20,36C20,45.383 26.667,51 30,51C33.333,51 40,45.383 40,36C40,26.617 34.119,14.668 30.786,14.668ZM31.096,15.497C31.316,15.497 31.527,15.68 31.786,15.895C32.3,16.324 32.828,16.949 33.368,17.72C36.168,21.721 38.958,29.35 38.958,35.754C38.958,42.105 35.815,46.68 32.813,48.849C31.655,49.686 30.562,50.171 29.69,50.171C28.619,50.171 27.169,49.365 25.755,48.016C23.254,45.63 21.042,41.58 21.042,36.246C21.042,29.797 24.637,22.116 27.911,18.085C28.723,17.087 29.508,16.316 30.215,15.864C30.55,15.649 30.827,15.497 31.096,15.497Z" style="fill:rgb(206,198,122);"/>
        </g>
        <g transform="matrix(-0.692005,0.203434,0.148262,0.504333,149.247,36.907)">
            <path d="M126.846,87.197C83.298,97.948 59.143,115.246 50.558,144.225" style="fill:none;stroke:rgb(206,198,122);stroke-width:1.49px;"/>
        </g>
        <g transform="matrix(1.03165,1.33326,-1.55175,1.20071,108.551,23.3208)">
            <path d="M30.786,14.668C34.119,14.668 40,26.617 40,36C40,45.383 33.333,51 30,51C26.667,51 20,45.383 20,36C20,26.617 27.453,14.668 30.786,14.668Z" style="fill:rgb(33,50,0);"/>
            <path d="M30.786,14.668C34.119,14.668 40,26.617 40,36C40,45.383 33.333,51 30,51C26.667,51 20,45.383 20,36C20,26.617 27.453,14.668 30.786,14.668ZM30.786,15.387C30.528,15.387 30.249,15.53 29.928,15.735C29.234,16.179 28.467,16.935 27.672,17.914C24.411,21.927 20.836,29.578 20.836,36C20.836,41.409 23.125,45.521 25.661,47.941C27.217,49.425 28.822,50.282 30,50.282C31.178,50.282 32.783,49.425 34.339,47.941C36.875,45.521 39.164,41.409 39.164,36C39.164,29.564 36.344,21.895 33.53,17.873C32.853,16.905 32.186,16.156 31.556,15.718C31.277,15.524 31.029,15.387 30.786,15.387Z" style="fill:rgb(206,198,122);"/>
        </g>
        <g transform="matrix(0.721288,0,0,0.721288,24.6158,19.0848)">
            <path d="M126.846,87.197C83.298,97.948 59.143,115.246 50.558,144.225" style="fill:none;stroke:rgb(206,198,122);stroke-width:1.3px;"/>
        </g>
    </g>
</svg>
