<?xml version="1.0" encoding="UTF-8" standalone="no"?>
<!DOCTYPE svg PUBLIC "-//W3C//DTD SVG 1.1//EN" "http://www.w3.org/Graphics/SVG/1.1/DTD/svg11.dtd">
<svg width="100%" height="100%" viewBox="0 0 200 200" version="1.1" xmlns="http://www.w3.org/2000/svg" xmlns:xlink="http://www.w3.org/1999/xlink" xml:space="preserve" xmlns:serif="http://www.serif.com/" style="fill-rule:evenodd;clip-rule:evenodd;stroke-linejoin:round;stroke-miterlimit:2;">
    <g>
        <g transform="matrix(0.740741,0,0,0.740741,26.6667,34.0741)">
            <circle cx="99" cy="89" r="54" style="fill:rgb(102,79,21);"/>
            <path d="M99,35C128.803,35 153,59.197 153,89C153,118.803 128.803,143 99,143C69.197,143 45,118.803 45,89C45,59.197 69.197,35 99,35ZM99,41.75C72.922,41.75 51.75,62.922 51.75,89C51.75,115.078 72.922,136.25 99,136.25C125.078,136.25 146.25,115.078 146.25,89C146.25,62.922 125.078,41.75 99,41.75Z" style="fill:rgb(195,121,0);"/>
        </g>
        <g transform="matrix(1,0,0,1,70,-1)">
            <path d="M30,16C30,16 40,26.617 40,36C40,45.383 30,56 30,56C30,56 20,45.383 20,36C20,26.617 30,16 30,16Z" style="fill:rgb(255,181,0);"/>
            <path d="M30,16C30,16 40,26.617 40,36C40,45.383 30,56 30,56C30,56 20,45.383 20,36C20,26.617 30,16 30,16ZM30,19.053C28.745,20.58 26.883,23.027 25.26,25.892C23.508,28.986 22,32.575 22,36C22,39.425 23.508,43.014 25.26,46.108C26.883,48.973 28.745,51.42 30,52.947C31.255,51.42 33.117,48.973 34.74,46.108C36.492,43.014 38,39.425 38,36C38,32.575 36.492,28.986 34.74,25.892C33.117,23.027 31.255,20.58 30,19.053Z" style="fill:rgb(195,121,0);"/>
        </g>
        <g transform="matrix(1,0,0,1,70,129)">
            <path d="M30,16C30,16 40,26.617 40,36C40,45.383 30,56 30,56C30,56 20,45.383 20,36C20,26.617 30,16 30,16Z" style="fill:rgb(255,181,0);"/>
            <path d="M30,16C30,16 40,26.617 40,36C40,45.383 30,56 30,56C30,56 20,45.383 20,36C20,26.617 30,16 30,16ZM30,19.053C28.745,20.58 26.883,23.027 25.26,25.892C23.508,28.986 22,32.575 22,36C22,39.425 23.508,43.014 25.26,46.108C26.883,48.973 28.745,51.42 30,52.947C31.255,51.42 33.117,48.973 34.74,46.108C36.492,43.014 38,39.425 38,36C38,32.575 36.492,28.986 34.74,25.892C33.117,23.027 31.255,20.58 30,19.053Z" style="fill:rgb(195,121,0);"/>
        </g>
        <g transform="matrix(6.12323e-17,-1,1,6.12323e-17,-1,130)">
            <path d="M30,16C30,16 40,26.617 40,36C40,45.383 30,56 30,56C30,56 20,45.383 20,36C20,26.617 30,16 30,16Z" style="fill:rgb(255,181,0);"/>
            <path d="M30,16C30,16 40,26.617 40,36C40,45.383 30,56 30,56C30,56 20,45.383 20,36C20,26.617 30,16 30,16ZM30,19.053C28.745,20.58 26.883,23.027 25.26,25.892C23.508,28.986 22,32.575 22,36C22,39.425 23.508,43.014 25.26,46.108C26.883,48.973 28.745,51.42 30,52.947C31.255,51.42 33.117,48.973 34.74,46.108C36.492,43.014 38,39.425 38,36C38,32.575 36.492,28.986 34.74,25.892C33.117,23.027 31.255,20.58 30,19.053Z" style="fill:rgb(195,121,0);"/>
        </g>
        <g transform="matrix(6.12323e-17,-1,1,6.12323e-17,129,130)">
            <path d="M30,16C30,16 40,26.617 40,36C40,45.383 30,56 30,56C30,56 20,45.383 20,36C20,26.617 30,16 30,16Z" style="fill:rgb(255,181,0);"/>
            <path d="M30,16C30,16 40,26.617 40,36C40,45.383 30,56 30,56C30,56 20,45.383 20,36C20,26.617 30,16 30,16ZM30,19.053C28.745,20.58 26.883,23.027 25.26,25.892C23.508,28.986 22,32.575 22,36C22,39.425 23.508,43.014 25.26,46.108C26.883,48.973 28.745,51.42 30,52.947C31.255,51.42 33.117,48.973 34.74,46.108C36.492,43.014 38,39.425 38,36C38,32.575 36.492,28.986 34.74,25.892C33.117,23.027 31.255,20.58 30,19.053Z" style="fill:rgb(195,121,0);"/>
        </g>
        <g transform="matrix(0.707107,-0.707107,0.707107,0.707107,7.36901,49.7954)">
            <path d="M30,16C30,16 40,26.617 40,36C40,45.383 30,56 30,56C30,56 20,45.383 20,36C20,26.617 30,16 30,16Z" style="fill:rgb(255,181,0);"/>
            <path d="M30,16C30,16 40,26.617 40,36C40,45.383 30,56 30,56C30,56 20,45.383 20,36C20,26.617 30,16 30,16ZM30,19.053C28.745,20.58 26.883,23.027 25.26,25.892C23.508,28.986 22,32.575 22,36C22,39.425 23.508,43.014 25.26,46.108C26.883,48.973 28.745,51.42 30,52.947C31.255,51.42 33.117,48.973 34.74,46.108C36.492,43.014 38,39.425 38,36C38,32.575 36.492,28.986 34.74,25.892C33.117,23.027 31.255,20.58 30,19.053Z" style="fill:rgb(195,121,0);"/>
        </g>
        <g transform="matrix(0.707107,-0.707107,0.707107,0.707107,99.2929,141.719)">
            <path d="M30,16C30,16 40,26.617 40,36C40,45.383 30,56 30,56C30,56 20,45.383 20,36C20,26.617 30,16 30,16Z" style="fill:rgb(255,181,0);"/>
            <path d="M30,16C30,16 40,26.617 40,36C40,45.383 30,56 30,56C30,56 20,45.383 20,36C20,26.617 30,16 30,16ZM30,19.053C28.745,20.58 26.883,23.027 25.26,25.892C23.508,28.986 22,32.575 22,36C22,39.425 23.508,43.014 25.26,46.108C26.883,48.973 28.745,51.42 30,52.947C31.255,51.42 33.117,48.973 34.74,46.108C36.492,43.014 38,39.425 38,36C38,32.575 36.492,28.986 34.74,25.892C33.117,23.027 31.255,20.58 30,19.053Z" style="fill:rgb(195,121,0);"/>
        </g>
        <g transform="matrix(0.707107,0.707107,-0.707107,0.707107,150.205,7.36901)">
            <path d="M30,16C30,16 40,26.617 40,36C40,45.383 30,56 30,56C30,56 20,45.383 20,36C20,26.617 30,16 30,16Z" style="fill:rgb(255,181,0);"/>
            <path d="M30,16C30,16 40,26.617 40,36C40,45.383 30,56 30,56C30,56 20,45.383 20,36C20,26.617 30,16 30,16ZM30,19.053C28.745,20.58 26.883,23.027 25.26,25.892C23.508,28.986 22,32.575 22,36C22,39.425 23.508,43.014 25.26,46.108C26.883,48.973 28.745,51.42 30,52.947C31.255,51.42 33.117,48.973 34.74,46.108C36.492,43.014 38,39.425 38,36C38,32.575 36.492,28.986 34.74,25.892C33.117,23.027 31.255,20.58 30,19.053Z" style="fill:rgb(195,121,0);"/>
        </g>
        <g transform="matrix(0.707107,0.707107,-0.707107,0.707107,58.2807,99.2929)">
            <path d="M30,16C30,16 40,26.617 40,36C40,45.383 30,56 30,56C30,56 20,45.383 20,36C20,26.617 30,16 30,16Z" style="fill:rgb(255,181,0);"/>
            <path d="M30,16C30,16 40,26.617 40,36C40,45.383 30,56 30,56C30,56 20,45.383 20,36C20,26.617 30,16 30,16ZM30,19.053C28.745,20.58 26.883,23.027 25.26,25.892C23.508,28.986 22,32.575 22,36C22,39.425 23.508,43.014 25.26,46.108C26.883,48.973 28.745,51.42 30,52.947C31.255,51.42 33.117,48.973 34.74,46.108C36.492,43.014 38,39.425 38,36C38,32.575 36.492,28.986 34.74,25.892C33.117,23.027 31.255,20.58 30,19.053Z" style="fill:rgb(195,121,0);"/>
        </g>
    </g>
</svg>
