<?xml version="1.0" encoding="UTF-8" standalone="no"?>
<!DOCTYPE svg PUBLIC "-//W3C//DTD SVG 1.1//EN" "http://www.w3.org/Graphics/SVG/1.1/DTD/svg11.dtd">
<svg width="100%" height="100%" viewBox="0 0 200 200" version="1.1" xmlns="http://www.w3.org/2000/svg" xmlns:xlink="http://www.w3.org/1999/xlink" xml:space="preserve" xmlns:serif="http://www.serif.com/" style="fill-rule:evenodd;clip-rule:evenodd;stroke-linejoin:round;stroke-miterlimit:2;">
    <g transform="matrix(3.58798,1.49186e-16,2.63678e-16,4.17597,-7.63927,-37.1141)">
        <path d="M30.786,14.668C32.266,14.648 40,30.449 40,39.831C40,49.214 33.333,51 30,51C26.667,51 20,49.214 20,39.831C20,30.449 29.298,14.688 30.786,14.668Z" style="fill:rgb(69,120,216);"/>
        <path d="M30.786,14.668C32.266,14.648 40,30.449 40,39.831C40,49.214 33.333,51 30,51C26.667,51 20,49.214 20,39.831C20,30.449 29.298,14.688 30.786,14.668ZM30.766,15.624C30.512,15.894 30.128,16.322 29.803,16.771C26.711,21.047 20.836,32.445 20.836,39.831C20.836,43.377 21.816,45.782 23.227,47.382C25.266,49.696 28.179,50.282 30,50.282C31.821,50.282 34.734,49.696 36.773,47.382C38.184,45.782 39.164,43.377 39.164,39.831C39.164,32.434 34.276,20.991 31.578,16.719C31.308,16.293 30.987,15.887 30.766,15.624Z" style="fill:rgb(224,224,224);"/>
    </g>
</svg>
